Coordinates
version=1
nRows=16
nColumns=22
inDegrees=yes

Units are S.I. units (second, meters, Newtons, ...)
If the header above contains a line with 'inDegrees', this indicates whether rotational values are in degrees (yes) or radians (no).

endheader
time	pelvis_tilt	pelvis_list	pelvis_rotation	pelvis_tx	pelvis_ty	pelvis_tz	hip_flexion_r	hip_adduction_r	hip_rotation_r	knee_angle_r	ankle_angle_r	subtalar_angle_r	hip_flexion_l	hip_adduction_l	hip_rotation_l	knee_angle_l	ankle_angle_l	subtalar_angle_l	lumbar_extension	lumbar_bending	lumbar_rotation
      1.29000000	      2.21880299	     -2.36832847	      2.47042132	     -0.56338829	      1.07582630	      1.18847036	     -3.21537768	      5.49219067	     -5.71348225	    -14.16333849	     16.53201166	     -4.22265202	     11.12575207	     -3.54839059	      3.86130368	    -40.37464857	     11.11094202	      3.90502271	     -4.41928800	      1.06768313	     -3.54352226
      1.30000000	      2.24308850	     -2.36979996	      2.43823724	     -0.56277287	      1.07579626	      1.18942537	     -3.30890960	      5.53822389	     -5.72379427	    -14.10506356	     16.55180217	     -4.12312187	     12.24779708	     -3.44430393	      4.11515911	    -42.31272736	      9.97935101	      4.29570998	     -4.60629522	      1.08516800	     -3.27748264
      1.31000000	      2.27212341	     -2.37601356	      2.39423164	     -0.56205400	      1.07575596	      1.19036205	     -3.42053236	      5.58565230	     -5.73159615	    -14.03419538	     16.60763170	     -4.01063325	     13.35706966	     -3.35799917	      4.29044883	    -44.17542335	      8.90506033	      4.64230377	     -4.80315350	      1.10784264	     -3.00827495
      1.32000000	      2.30579763	     -2.38289366	      2.34097506	     -0.56121586	      1.07572362	      1.19126452	     -3.55723414	      5.63072114	     -5.72690005	    -13.93691980	     16.65212107	     -3.88703124	     14.43556298	     -3.28019826	      4.40700527	    -45.92066951	      7.93801755	      4.90419734	     -5.00669542	      1.12998383	     -2.73116729
      1.33000000	      2.34058963	     -2.38967588	      2.28179875	     -0.56023244	      1.07569684	      1.19212706	     -3.71846415	      5.67346523	     -5.71384366	    -13.81206871	     16.70037661	     -3.75298111	     15.47643698	     -3.21763349	      4.45034735	    -47.51697383	      7.14868011	      5.04746555	     -5.20655230	      1.15029213	     -2.44940863
      1.34000000	      2.38689834	     -2.38744784	      2.21430013	     -0.55909073	      1.07571280	      1.19296725	     -3.92735519	      5.70695648	     -5.68511945	    -13.63693917	     16.71634269	     -3.62087620	     16.45568449	     -3.16929639	      4.40836338	    -48.93120713	      6.56172227	      5.04338451	     -5.41690278	      1.15709848	     -2.17481707
      1.35000000	      2.41358914	     -2.38976607	      2.14205411	     -0.55782291	      1.07569562	      1.19377822	     -4.12498528	      5.74213438	     -5.65164790	    -13.46004263	     16.76536904	     -3.47010823	     17.41459838	     -3.15085757	      4.28540021	    -50.16568472	      6.21998256	      4.88189761	     -5.60204854	      1.16722015	     -1.91711904
      1.36000000	      2.42970925	     -2.38489169	      2.06682247	     -0.55640556	      1.07567734	      1.19455788	     -4.33061819	      5.76819508	     -5.61351693	    -13.26577823	     16.82811129	     -3.30696909	     18.33100585	     -3.14939208	      4.08677642	    -51.19723790	      6.10332347	      4.55518279	     -5.76918805	      1.16590176	     -1.67536174
      1.37000000	      2.42806941	     -2.35372153	      2.00338847	     -0.55483655	      1.07565983	      1.19527775	     -4.54026258	      5.76555265	     -5.58721436	    -13.04779135	     16.90517974	     -3.12534057	     19.20744001	     -3.13277128	      3.83836651	    -52.01334348	      6.14348405	      4.05685009	     -5.91051462	      1.13248018	     -1.47003524
      1.38000000	      2.42723739	     -2.32500200	      1.92438253	     -0.55311265	      1.07566207	      1.19600143	     -4.77081884	      5.76644650	     -5.53271571	    -12.80968344	     16.96361076	     -2.95561636	     20.02592364	     -3.15377696	      3.50295154	    -52.62350746	      6.30412050	      3.54059432	     -6.04772712	      1.09873769	     -1.27801736
      1.39000000	      2.41361455	     -2.28983946	      1.82885890	     -0.55124279	      1.07565198	      1.19672741	     -4.99517953	      5.75844531	     -5.47258497	    -12.57416319	     17.02051925	     -2.79201969	     20.79762773	     -3.19394544	      3.09975836	    -53.03001424	      6.56439452	      3.02621850	     -6.16677533	      1.05294083	     -1.08955316
      1.40000000	      2.38558494	     -2.23675321	      1.73648662	     -0.54921409	      1.07562193	      1.19738867	     -5.21201433	      5.72791921	     -5.42429387	    -12.34246368	     17.09217600	     -2.63518863	     21.52378923	     -3.22546989	      2.65585627	    -53.23550993	      6.86205867	      2.52272606	     -6.26409993	      0.98991383	     -0.92609225
      1.41000000	      2.34410071	     -2.17036150	      1.64259417	     -0.54704265	      1.07556508	      1.19801216	     -5.42173115	      5.68159565	     -5.37335108	    -12.11236868	     17.16691676	     -2.48876413	     22.20578340	     -3.24830915	      2.18610605	    -53.25073646	      7.16669296	      2.05090819	     -6.34358446	      0.91096763	     -0.78739288
      1.42000000	      2.29116370	     -2.09560613	      1.54225010	     -0.54472881	      1.07547516	      1.19860360	     -5.61686516	      5.62355820	     -5.32281466	    -11.90092913	     17.24628246	     -2.35774680	     22.84082798	     -3.26992383	      1.68298393	    -53.08261142	      7.45830091	      1.61468050	     -6.40969629	      0.82169916	     -0.65902406
      1.43000000	      2.22988648	     -2.01059619	      1.44227528	     -0.54228484	      1.07534714	      1.19912911	     -5.79777896	      5.55087094	     -5.27174254	    -11.71305841	     17.32287205	     -2.25096104	     23.42883809	     -3.27751184	      1.16209689	    -52.74237384	      7.73254516	      1.21245204	     -6.46752261	      0.72643235	     -0.55220178
      1.44000000	      2.16135981	     -1.91831523	      1.33562625	     -0.53972861	      1.07517481	      1.19962320	     -5.96150356	      5.46693952	     -5.22137801	    -11.55423950	     17.39047532	     -2.17571171	     23.97156582	     -3.27451878	      0.62756483	    -52.24128942	      7.97941389	      0.81569455	     -6.52406018	      0.62085466	     -0.45760834
